<svg xmlns="http://www.w3.org/2000/svg" width="375" viewBox="0 0 375 375" height="375" version="1.0"><defs><clipPath id="a"><path d="M 27.558594 28.535156 L 345.574219 28.535156 L 345.574219 346.550781 L 27.558594 346.550781 Z M 27.558594 28.535156"/></clipPath></defs><path fill="#FFF8DC" d="M 186.660156 0.976562 C 83.570312 0.976562 0 84.546875 0 187.636719 C 0 290.726562 83.570312 374.296875 186.660156 374.296875 C 289.75 374.296875 373.320312 290.726562 373.320312 187.636719 C 373.320312 84.546875 289.75 0.976562 186.660156 0.976562"/><g clip-path="url(#a)"><path fill="#567B6B" d="M 277.769531 304.554688 C 252.941406 312.203125 229.1875 313.570312 212.46875 308.214844 L 204.488281 305.628906 C 170.882812 294.699219 120.664062 278.453125 83.035156 293.808594 C 75.21875 286.195312 68.242188 277.722656 62.25 268.5625 C 95.308594 234.390625 155.964844 254.117188 196.476562 267.285156 L 204.472656 269.875 C 212.503906 272.460938 221.519531 273.625 230.992188 273.625 C 263.359375 273.625 301.15625 259.984375 324.488281 242.367188 C 314.652344 267.03125 298.386719 288.453125 277.769531 304.554688 Z M 91.832031 301.75 C 125.492188 291.039062 170.609375 305.683594 201.230469 315.648438 L 209.261719 318.25 C 217.019531 320.730469 226.019531 321.949219 235.800781 321.949219 C 240.957031 321.949219 246.367188 321.492188 251.882812 320.820312 C 232.15625 330.527344 209.992188 336.011719 186.566406 336.011719 C 150.574219 336.011719 117.550781 323.132812 91.832031 301.75 Z M 186.566406 39.074219 C 268.421875 39.074219 335.035156 105.6875 335.035156 187.542969 C 335.035156 199.273438 333.613281 210.65625 331.046875 221.605469 C 311.101562 248.070312 245.984375 272.148438 207.675781 259.855469 L 199.734375 257.285156 C 157.386719 243.515625 94.382812 223.0625 56.660156 259.308594 C 44.855469 238.015625 38.097656 213.554688 38.097656 187.542969 C 38.097656 105.6875 104.710938 39.074219 186.566406 39.074219 Z M 186.566406 28.5625 C 98.898438 28.5625 27.589844 99.875 27.589844 187.542969 C 27.589844 275.210938 98.898438 346.519531 186.566406 346.519531 C 274.234375 346.519531 345.542969 275.210938 345.542969 187.542969 C 345.542969 99.875 274.234375 28.5625 186.566406 28.5625"/></g><path fill="#567B6B" d="M 111.613281 138.5625 L 132.632812 110.929688 C 140.390625 100.695312 152.214844 95.320312 164.164062 95.320312 C 170.628906 95.320312 177.113281 96.886719 183.03125 100.113281 C 182.230469 100.53125 181.375 101.003906 180.519531 101.515625 C 180.320312 101.640625 180.101562 101.769531 179.898438 101.898438 C 179.0625 102.390625 178.207031 102.933594 177.332031 103.519531 C 177.113281 103.664062 176.914062 103.808594 176.695312 103.957031 C 175.65625 104.664062 174.597656 105.429688 173.523438 106.269531 C 173.324219 106.433594 173.125 106.597656 172.90625 106.761719 C 171.996094 107.488281 171.066406 108.273438 170.15625 109.089844 C 169.898438 109.328125 169.664062 109.527344 169.40625 109.765625 C 168.316406 110.765625 167.242188 111.824219 166.148438 112.972656 C 165.984375 113.152344 165.800781 113.371094 165.621094 113.554688 C 164.691406 114.554688 163.78125 115.628906 162.886719 116.722656 C 162.632812 117.050781 162.378906 117.359375 162.121094 117.6875 C 161.082031 119.019531 160.0625 120.402344 159.0625 121.898438 C 158.933594 122.097656 158.824219 122.296875 158.699219 122.496094 C 157.824219 123.828125 157.003906 125.25 156.183594 126.707031 C 155.964844 127.125 155.730469 127.542969 155.511719 127.980469 C 154.617188 129.675781 153.742188 131.441406 152.960938 133.316406 C 152.886719 133.480469 152.832031 133.644531 152.757812 133.808594 C 152.050781 135.558594 151.375 137.398438 150.757812 139.292969 C 150.574219 139.839844 150.410156 140.367188 150.246094 140.914062 C 149.589844 143.042969 148.988281 145.230469 148.480469 147.542969 C 148.023438 149.582031 147.515625 151.53125 146.949219 153.390625 C 146.765625 153.992188 146.566406 154.554688 146.367188 155.136719 C 145.949219 156.378906 145.527344 157.597656 145.074219 158.761719 C 144.835938 159.402344 144.582031 160.003906 144.328125 160.601562 C 143.871094 161.679688 143.398438 162.714844 142.90625 163.71875 C 142.632812 164.28125 142.378906 164.828125 142.105469 165.355469 C 141.539062 166.414062 140.957031 167.433594 140.375 168.417969 C 140.136719 168.800781 139.917969 169.21875 139.699219 169.582031 C 138.863281 170.914062 138.003906 172.1875 137.132812 173.371094 C 136.984375 173.554688 136.859375 173.71875 136.710938 173.898438 C 135.964844 174.882812 135.21875 175.832031 134.453125 176.722656 C 134.144531 177.085938 133.835938 177.433594 133.523438 177.78125 C 132.925781 178.453125 132.304688 179.109375 131.703125 179.730469 C 131.375 180.054688 131.03125 180.382812 130.703125 180.710938 C 130.101562 181.296875 129.5 181.839844 128.898438 182.371094 C 128.589844 182.660156 128.277344 182.933594 127.96875 183.207031 C 127.296875 183.773438 126.640625 184.300781 125.984375 184.808594 C 125.765625 184.972656 125.546875 185.15625 125.347656 185.300781 C 124.492188 185.957031 123.652344 186.539062 122.851562 187.085938 C 122.652344 187.214844 122.449219 187.324219 122.25 187.453125 C 121.648438 187.851562 121.066406 188.214844 120.5 188.5625 C 120.246094 188.707031 119.992188 188.855469 119.738281 189 C 119.261719 189.273438 118.808594 189.527344 118.371094 189.765625 C 118.132812 189.890625 117.898438 190 117.679688 190.109375 C 117.242188 190.328125 116.839844 190.53125 116.457031 190.710938 C 116.292969 190.785156 116.113281 190.875 115.964844 190.949219 C 115.894531 190.984375 115.820312 191.003906 115.746094 191.039062 C 101.304688 177.25 99.335938 154.773438 111.613281 138.5625 Z M 216.929688 120.875 L 247.894531 136.558594 C 257.3125 141.332031 264.308594 149.492188 267.605469 159.546875 C 270.246094 167.671875 270.171875 176.214844 267.53125 184.191406 C 259.84375 174.410156 243.558594 159.710938 214.691406 158.726562 C 212.558594 158.652344 210.464844 158.472656 208.40625 158.21875 C 212.195312 151.058594 214.160156 143.136719 214.160156 134.902344 C 214.160156 132.808594 213.996094 130.75 213.742188 128.691406 C 213.707031 128.308594 213.652344 127.925781 213.597656 127.542969 C 213.304688 125.558594 212.90625 123.628906 212.394531 121.714844 C 212.285156 121.351562 212.175781 120.984375 212.066406 120.640625 C 211.867188 119.949219 211.703125 119.253906 211.464844 118.582031 C 213.324219 119.199219 215.144531 119.964844 216.929688 120.875 Z M 229.972656 211.367188 C 223.832031 211.367188 217.660156 209.890625 212.140625 207.085938 L 183.234375 192.441406 L 201.957031 167.816406 C 205.945312 168.5625 210.0625 169.089844 214.34375 169.238281 C 244.089844 170.238281 257.949219 188.015625 262.140625 194.71875 C 254.796875 205.027344 242.757812 211.367188 229.972656 211.367188 Z M 125.402344 197.871094 C 126.128906 197.433594 126.894531 196.960938 127.679688 196.46875 C 127.914062 196.320312 128.152344 196.140625 128.386719 195.996094 C 129.117188 195.503906 129.863281 194.992188 130.648438 194.429688 C 130.921875 194.226562 131.195312 194.046875 131.464844 193.828125 C 132.433594 193.117188 133.414062 192.351562 134.417969 191.511719 C 134.636719 191.332031 134.871094 191.113281 135.089844 190.914062 C 135.929688 190.203125 136.765625 189.457031 137.605469 188.652344 C 137.898438 188.378906 138.1875 188.105469 138.460938 187.835938 C 139.5 186.8125 140.519531 185.757812 141.539062 184.628906 C 141.722656 184.410156 141.921875 184.171875 142.105469 183.953125 C 142.976562 182.972656 143.816406 181.914062 144.652344 180.820312 C 144.945312 180.476562 145.21875 180.109375 145.492188 179.746094 C 146.476562 178.417969 147.460938 177.015625 148.386719 175.539062 C 148.535156 175.320312 148.644531 175.101562 148.789062 174.882812 C 149.609375 173.554688 150.390625 172.167969 151.175781 170.710938 C 151.410156 170.257812 151.648438 169.820312 151.886719 169.347656 C 152.742188 167.652344 153.578125 165.886719 154.34375 164.007812 C 154.417969 163.863281 154.472656 163.679688 154.527344 163.535156 C 155.238281 161.785156 155.894531 159.949219 156.492188 158.054688 C 156.675781 157.507812 156.859375 156.960938 157.023438 156.394531 C 157.640625 154.28125 158.242188 152.132812 158.734375 149.839844 C 158.753906 149.820312 158.753906 149.800781 158.753906 149.800781 C 159.207031 147.761719 159.71875 145.832031 160.28125 143.972656 C 160.484375 143.390625 160.683594 142.824219 160.867188 142.261719 C 161.285156 141.023438 161.722656 139.800781 162.175781 138.652344 C 162.433594 138.035156 162.6875 137.433594 162.941406 136.851562 C 163.414062 135.792969 163.890625 134.757812 164.378906 133.773438 C 164.652344 133.226562 164.945312 132.679688 165.21875 132.152344 C 165.785156 131.132812 166.347656 130.148438 166.929688 129.21875 C 167.1875 128.800781 167.441406 128.382812 167.695312 127.980469 C 168.550781 126.6875 169.425781 125.429688 170.320312 124.265625 C 170.335938 124.246094 170.375 124.210938 170.390625 124.171875 C 171.265625 123.042969 172.175781 122.007812 173.070312 121.003906 C 173.378906 120.675781 173.671875 120.367188 173.960938 120.058594 C 174.617188 119.382812 175.253906 118.710938 175.910156 118.109375 C 176.238281 117.78125 176.585938 117.46875 176.914062 117.160156 C 177.550781 116.597656 178.167969 116.066406 178.789062 115.558594 C 179.097656 115.285156 179.425781 115.011719 179.753906 114.757812 C 180.410156 114.226562 181.066406 113.738281 181.722656 113.28125 C 181.976562 113.097656 182.230469 112.898438 182.46875 112.734375 C 183.359375 112.117188 184.234375 111.53125 185.074219 111.023438 C 185.089844 111.023438 185.109375 111.003906 185.128906 111.003906 C 185.945312 110.496094 186.75 110.039062 187.511719 109.621094 C 187.730469 109.511719 187.949219 109.402344 188.167969 109.292969 C 188.699219 109 189.226562 108.746094 189.71875 108.507812 C 189.9375 108.398438 190.15625 108.308594 190.375 108.199219 C 190.828125 108 191.265625 107.796875 191.667969 107.617188 C 191.847656 107.5625 192.011719 107.488281 192.175781 107.414062 C 192.285156 107.363281 192.375 107.34375 192.484375 107.289062 C 194.527344 109.363281 196.3125 111.679688 197.839844 114.191406 C 201.628906 120.402344 203.652344 127.5625 203.652344 134.902344 C 203.652344 143.574219 200.863281 151.824219 195.527344 158.890625 L 174.617188 186.394531 C 173.453125 187.925781 172.378906 189.164062 171.300781 190.238281 C 159.152344 202.625 140.429688 205.394531 125.402344 197.871094 Z M 104.035156 194.9375 L 111.265625 201.113281 C 111.285156 201.132812 111.304688 201.148438 111.320312 201.148438 C 111.320312 201.167969 111.339844 201.1875 111.339844 201.1875 L 113.542969 202.988281 L 113.671875 202.953125 C 122.488281 209.363281 132.816406 212.535156 143.125 212.535156 C 154.855469 212.535156 166.511719 208.417969 175.765625 200.421875 C 175.984375 200.53125 176.203125 200.675781 176.421875 200.785156 L 207.386719 216.484375 C 214.378906 220.019531 222.195312 221.894531 229.972656 221.894531 C 247.421875 221.894531 263.851562 212.625 272.8125 197.796875 C 273.488281 196.722656 274.089844 195.613281 274.652344 194.464844 C 280.699219 182.550781 281.738281 168.980469 277.605469 156.269531 C 273.433594 143.554688 264.582031 133.226562 252.648438 127.179688 L 221.683594 111.476562 C 216.457031 108.835938 210.917969 107.214844 205.238281 106.503906 C 204.691406 105.703125 204.125 104.882812 203.523438 104.117188 L 204.5625 103.847656 L 197.277344 97.34375 C 197.257812 97.34375 197.257812 97.34375 197.238281 97.324219 L 195.128906 95.46875 L 195.035156 95.503906 C 194.816406 95.320312 194.617188 95.140625 194.398438 94.976562 C 172.414062 78.289062 140.9375 82.589844 124.253906 104.554688 L 103.234375 132.207031 C 88.808594 151.257812 89.9375 177.125 104.800781 194.699219 L 104.035156 194.9375"/></svg>