<svg xmlns="http://www.w3.org/2000/svg" width="375" viewBox="0 0 375 375" height="375" version="1.0"><defs><clipPath id="a"><path d="M 58.773438 59.75 L 315.507812 59.75 L 315.507812 316.484375 L 58.773438 316.484375 Z M 58.773438 59.75"/></clipPath></defs><path fill="#FFF8DC" d="M 187.21875 37.5 C 103.992188 37.5 36.523438 104.96875 36.523438 188.191406 C 36.523438 271.417969 103.992188 338.886719 187.21875 338.886719 C 270.441406 338.886719 337.910156 271.417969 337.910156 188.191406 C 337.910156 104.96875 270.441406 37.5 187.21875 37.5"/><g clip-path="url(#a)"><path fill="#567B6B" d="M 260.769531 282.582031 C 240.726562 288.757812 221.550781 289.859375 208.050781 285.535156 L 201.609375 283.449219 C 174.480469 274.625 133.9375 261.507812 103.558594 273.90625 C 97.25 267.757812 91.617188 260.921875 86.777344 253.523438 C 113.46875 225.9375 162.4375 241.863281 195.140625 252.496094 L 201.59375 254.582031 C 208.082031 256.671875 215.359375 257.613281 223.003906 257.613281 C 249.136719 257.613281 279.648438 246.597656 298.484375 232.378906 C 290.546875 252.289062 277.414062 269.582031 260.769531 282.582031 Z M 110.660156 280.316406 C 137.835938 271.671875 174.257812 283.492188 198.976562 291.535156 L 205.460938 293.640625 C 211.726562 295.640625 218.992188 296.625 226.886719 296.625 C 231.050781 296.625 235.417969 296.257812 239.871094 295.710938 C 223.945312 303.550781 206.050781 307.976562 187.140625 307.976562 C 158.082031 307.976562 131.421875 297.582031 110.660156 280.316406 Z M 187.140625 68.257812 C 253.222656 68.257812 307 122.03125 307 188.117188 C 307 197.585938 305.851562 206.777344 303.78125 215.613281 C 287.679688 236.980469 235.109375 256.421875 204.183594 246.496094 L 197.773438 244.421875 C 163.582031 233.304688 112.71875 216.792969 82.265625 246.054688 C 72.734375 228.863281 67.28125 209.117188 67.28125 188.117188 C 67.28125 122.03125 121.054688 68.257812 187.140625 68.257812 Z M 187.140625 59.773438 C 116.367188 59.773438 58.796875 117.34375 58.796875 188.117188 C 58.796875 258.890625 116.367188 316.460938 187.140625 316.460938 C 257.914062 316.460938 315.484375 258.890625 315.484375 188.117188 C 315.484375 117.34375 257.914062 59.773438 187.140625 59.773438"/></g><path fill="#567B6B" d="M 126.628906 148.574219 L 143.597656 126.269531 C 149.863281 118.003906 159.40625 113.664062 169.054688 113.664062 C 174.273438 113.664062 179.507812 114.929688 184.289062 117.53125 C 183.640625 117.871094 182.949219 118.253906 182.257812 118.664062 C 182.097656 118.769531 181.921875 118.871094 181.757812 118.972656 C 181.082031 119.371094 180.390625 119.8125 179.683594 120.28125 C 179.507812 120.402344 179.347656 120.519531 179.171875 120.636719 C 178.332031 121.210938 177.480469 121.828125 176.613281 122.503906 C 176.449219 122.636719 176.289062 122.769531 176.113281 122.898438 C 175.375 123.488281 174.625 124.121094 173.890625 124.78125 C 173.683594 124.972656 173.496094 125.136719 173.289062 125.328125 C 172.40625 126.136719 171.539062 126.988281 170.65625 127.914062 C 170.523438 128.0625 170.375 128.238281 170.230469 128.386719 C 169.480469 129.195312 168.746094 130.0625 168.023438 130.945312 C 167.816406 131.207031 167.613281 131.457031 167.40625 131.722656 C 166.566406 132.796875 165.746094 133.914062 164.9375 135.121094 C 164.832031 135.28125 164.746094 135.445312 164.640625 135.605469 C 163.9375 136.679688 163.273438 137.824219 162.613281 139.003906 C 162.4375 139.339844 162.246094 139.679688 162.070312 140.03125 C 161.347656 141.398438 160.640625 142.824219 160.007812 144.339844 C 159.949219 144.472656 159.90625 144.605469 159.847656 144.738281 C 159.273438 146.148438 158.730469 147.632812 158.230469 149.164062 C 158.082031 149.605469 157.949219 150.03125 157.820312 150.472656 C 157.289062 152.191406 156.804688 153.957031 156.390625 155.824219 C 156.023438 157.472656 155.613281 159.046875 155.15625 160.546875 C 155.011719 161.03125 154.847656 161.484375 154.6875 161.957031 C 154.347656 162.957031 154.011719 163.941406 153.640625 164.882812 C 153.453125 165.398438 153.246094 165.882812 153.039062 166.367188 C 152.671875 167.234375 152.289062 168.074219 151.894531 168.882812 C 151.671875 169.339844 151.464844 169.78125 151.246094 170.207031 C 150.789062 171.058594 150.320312 171.882812 149.847656 172.675781 C 149.65625 172.984375 149.480469 173.324219 149.304688 173.617188 C 148.628906 174.691406 147.9375 175.71875 147.230469 176.675781 C 147.113281 176.824219 147.011719 176.957031 146.894531 177.101562 C 146.289062 177.898438 145.6875 178.660156 145.070312 179.382812 C 144.820312 179.675781 144.570312 179.957031 144.320312 180.234375 C 143.835938 180.777344 143.335938 181.308594 142.847656 181.808594 C 142.585938 182.074219 142.304688 182.335938 142.039062 182.601562 C 141.554688 183.074219 141.070312 183.515625 140.585938 183.941406 C 140.335938 184.175781 140.085938 184.394531 139.835938 184.617188 C 139.289062 185.074219 138.761719 185.5 138.230469 185.910156 C 138.054688 186.042969 137.878906 186.191406 137.71875 186.308594 C 137.027344 186.835938 136.347656 187.308594 135.703125 187.75 C 135.539062 187.851562 135.378906 187.941406 135.21875 188.042969 C 134.730469 188.367188 134.261719 188.660156 133.804688 188.941406 C 133.601562 189.058594 133.394531 189.175781 133.1875 189.292969 C 132.804688 189.515625 132.4375 189.71875 132.085938 189.910156 C 131.894531 190.015625 131.703125 190.101562 131.527344 190.191406 C 131.171875 190.367188 130.851562 190.527344 130.542969 190.675781 C 130.410156 190.734375 130.261719 190.808594 130.144531 190.867188 C 130.085938 190.894531 130.027344 190.910156 129.96875 190.941406 C 118.304688 179.808594 116.71875 161.664062 126.628906 148.574219 Z M 211.652344 134.296875 L 236.652344 146.957031 C 244.253906 150.808594 249.902344 157.398438 252.5625 165.515625 C 254.695312 172.074219 254.636719 178.96875 252.503906 185.410156 C 246.296875 177.515625 233.152344 165.648438 209.84375 164.855469 C 208.125 164.792969 206.433594 164.648438 204.773438 164.441406 C 207.832031 158.664062 209.417969 152.265625 209.417969 145.621094 C 209.417969 143.929688 209.285156 142.265625 209.082031 140.605469 C 209.050781 140.296875 209.007812 139.988281 208.960938 139.679688 C 208.726562 138.074219 208.402344 136.515625 207.992188 134.972656 C 207.902344 134.679688 207.816406 134.386719 207.726562 134.105469 C 207.566406 133.546875 207.433594 132.988281 207.242188 132.445312 C 208.742188 132.945312 210.210938 133.5625 211.652344 134.296875 Z M 222.183594 207.351562 C 217.226562 207.351562 212.242188 206.160156 207.785156 203.894531 L 184.449219 192.074219 L 199.566406 172.191406 C 202.785156 172.792969 206.109375 173.21875 209.566406 173.339844 C 233.578125 174.148438 244.769531 188.5 248.152344 193.910156 C 242.226562 202.234375 232.503906 207.351562 222.183594 207.351562 Z M 137.761719 196.453125 C 138.347656 196.101562 138.96875 195.71875 139.597656 195.320312 C 139.789062 195.203125 139.980469 195.058594 140.171875 194.941406 C 140.761719 194.542969 141.363281 194.132812 141.996094 193.675781 C 142.214844 193.511719 142.4375 193.367188 142.65625 193.191406 C 143.4375 192.617188 144.230469 192 145.039062 191.324219 C 145.214844 191.175781 145.40625 191 145.585938 190.835938 C 146.261719 190.261719 146.9375 189.660156 147.613281 189.015625 C 147.847656 188.792969 148.085938 188.574219 148.304688 188.351562 C 149.144531 187.527344 149.964844 186.675781 150.789062 185.765625 C 150.9375 185.585938 151.097656 185.394531 151.246094 185.21875 C 151.953125 184.425781 152.628906 183.574219 153.304688 182.691406 C 153.539062 182.410156 153.761719 182.117188 153.980469 181.824219 C 154.773438 180.75 155.570312 179.617188 156.320312 178.425781 C 156.4375 178.25 156.523438 178.074219 156.640625 177.898438 C 157.304688 176.824219 157.9375 175.707031 158.570312 174.53125 C 158.761719 174.160156 158.949219 173.808594 159.140625 173.425781 C 159.832031 172.058594 160.507812 170.632812 161.128906 169.117188 C 161.1875 169 161.230469 168.851562 161.273438 168.734375 C 161.847656 167.324219 162.378906 165.839844 162.863281 164.308594 C 163.007812 163.867188 163.15625 163.425781 163.289062 162.972656 C 163.789062 161.265625 164.273438 159.53125 164.671875 157.675781 C 164.6875 157.664062 164.6875 157.648438 164.6875 157.648438 C 165.054688 156 165.464844 154.441406 165.921875 152.941406 C 166.082031 152.472656 166.246094 152.015625 166.390625 151.558594 C 166.730469 150.558594 167.082031 149.574219 167.449219 148.648438 C 167.65625 148.148438 167.863281 147.664062 168.066406 147.191406 C 168.449219 146.339844 168.832031 145.5 169.230469 144.707031 C 169.449219 144.265625 169.6875 143.824219 169.90625 143.398438 C 170.363281 142.574219 170.816406 141.78125 171.289062 141.03125 C 171.496094 140.691406 171.699219 140.355469 171.90625 140.03125 C 172.597656 138.988281 173.304688 137.972656 174.023438 137.03125 C 174.039062 137.015625 174.066406 136.988281 174.082031 136.957031 C 174.789062 136.046875 175.523438 135.207031 176.242188 134.398438 C 176.492188 134.136719 176.730469 133.886719 176.964844 133.636719 C 177.492188 133.089844 178.007812 132.546875 178.539062 132.0625 C 178.800781 131.796875 179.082031 131.546875 179.347656 131.296875 C 179.863281 130.839844 180.363281 130.414062 180.863281 130.003906 C 181.113281 129.78125 181.375 129.5625 181.640625 129.355469 C 182.171875 128.929688 182.699219 128.53125 183.230469 128.164062 C 183.433594 128.019531 183.640625 127.855469 183.832031 127.722656 C 184.550781 127.222656 185.257812 126.753906 185.933594 126.339844 C 185.949219 126.339844 185.964844 126.328125 185.980469 126.328125 C 186.640625 125.914062 187.289062 125.546875 187.90625 125.210938 C 188.082031 125.121094 188.257812 125.03125 188.433594 124.945312 C 188.859375 124.710938 189.289062 124.503906 189.683594 124.3125 C 189.859375 124.222656 190.039062 124.148438 190.214844 124.0625 C 190.582031 123.898438 190.933594 123.738281 191.257812 123.589844 C 191.40625 123.546875 191.539062 123.488281 191.667969 123.429688 C 191.757812 123.386719 191.832031 123.371094 191.917969 123.328125 C 193.566406 125.003906 195.007812 126.871094 196.242188 128.898438 C 199.300781 133.914062 200.933594 139.691406 200.933594 145.621094 C 200.933594 152.617188 198.683594 159.28125 194.375 164.984375 L 177.492188 187.191406 C 176.554688 188.425781 175.683594 189.425781 174.816406 190.292969 C 165.007812 200.292969 149.894531 202.527344 137.761719 196.453125 Z M 120.511719 194.085938 L 126.351562 199.070312 C 126.363281 199.085938 126.378906 199.101562 126.394531 199.101562 C 126.394531 199.117188 126.410156 199.128906 126.410156 199.128906 L 128.1875 200.585938 L 128.292969 200.558594 C 135.410156 205.734375 143.746094 208.292969 152.070312 208.292969 C 161.539062 208.292969 170.949219 204.96875 178.421875 198.511719 C 178.597656 198.601562 178.773438 198.71875 178.949219 198.808594 L 203.949219 211.484375 C 209.59375 214.335938 215.902344 215.851562 222.183594 215.851562 C 236.269531 215.851562 249.535156 208.367188 256.769531 196.394531 C 257.3125 195.527344 257.796875 194.632812 258.253906 193.703125 C 263.136719 184.085938 263.972656 173.132812 260.636719 162.867188 C 257.269531 152.605469 250.121094 144.265625 240.488281 139.382812 L 215.492188 126.707031 C 211.269531 124.578125 206.800781 123.269531 202.214844 122.695312 C 201.773438 122.046875 201.316406 121.386719 200.832031 120.769531 L 201.667969 120.546875 L 195.785156 115.296875 C 195.773438 115.296875 195.773438 115.296875 195.757812 115.28125 L 194.050781 113.785156 L 193.976562 113.8125 C 193.800781 113.664062 193.640625 113.519531 193.464844 113.386719 C 175.714844 99.917969 150.304688 103.386719 136.835938 121.121094 L 119.867188 143.441406 C 108.21875 158.824219 109.128906 179.707031 121.128906 193.894531 L 120.511719 194.085938"/></svg>